PathFileType	4	(X/Y/Z)	pose_F01_0-96.trc
DataRate	CameraRate	NumFrames	NumMarkers	Units	OrigDataRate	OrigDataStartFrame	OrigNumFrames
30	30	10	21	m	30	72	96
Frame#	Time	CHip			RHip			RKnee			RAnkle			RBigToe			RSmallToe			RHeel			LHip			LKnee			LAnkle			LBigToe			LSmallToe			LHeel			Neck			Nose			RShoulder			RElbow			RWrist			LShoulder			LElbow			LWrist			
		X1	Y1	Z1	X2	Y2	Z2	X3	Y3	Z3	X4	Y4	Z4	X5	Y5	Z5	X6	Y6	Z6	X7	Y7	Z7	X8	Y8	Z8	X9	Y9	Z9	X10	Y10	Z10	X11	Y11	Z11	X12	Y12	Z12	X13	Y13	Z13	X14	Y14	Z14	X15	Y15	Z15	X16	Y16	Z16	X17	Y17	Z17	X18	Y18	Z18	X19	Y19	Z19	X20	Y20	Z20	X21	Y21	Z21	
72	2.4	-0.166619000965302	1.824350542273978	-0.5080870316703171	-0.17834907033247172	1.8230844622567988	-0.45449148931487254	-0.16218263885412343	1.7018177149284643	-0.43395055728729837													-0.15287704679009562	1.8260078026155189	-0.5668137889647992	-0.14255914270400857	1.704149642337537	-0.5457592889392426	-0.1393237767244091	1.5795830658609258	-0.5162945056904191	-0.18065160315528897	1.5493966569801823	-0.5392149438966697	-0.16860775615401838	1.5515950143813653	-0.5513295805353288	-0.13277187846343405	1.5640986340505558	-0.5123739527540054	-0.1563802468190916	1.976461258152866	-0.5353952461891318	-0.18391316774339567	2.0386556454228533	-0.5513028871369363	-0.17271657818986735	1.972553870677309	-0.4518883958669433	-0.1844209840112423	1.8904077843805178	-0.39372636050385673	-0.20108678815796086	1.8204499813440043	-0.3583290569055612	-1.7227329254175325	1.8877928028276258	1.1316458932973128	-0.123293486459989	1.8946828530555608	-0.6373323307516743	-0.12066571506351327	1.82169567643114	-0.6610167943391455
73	2.433333333333333	-0.1665877098929985	1.8272846900106785	-0.5084252789423611	-0.17832499580769626	1.8260699509445961	-0.45476923271835357	-0.1651674132964885	1.7024692286176697	-0.43504579494194473													-0.1528103286063907	1.8287014652610467	-0.567238981262719	-0.14273927808066536	1.705412971564522	-0.5455600182699236	-0.13929018320806424	1.5795007858576726	-0.5162128425109367	-0.17946968942318703	1.5478968153855812	-0.5361353907026192	-0.16805306793765504	1.550382617766151	-0.5473698861694751	-0.13057926641303533	1.5632519715611095	-0.514857675965078	-0.15643722410621957	1.9763474274290906	-0.5354603929115118	-0.18381856962305726	2.039772913882126	-0.5511910393849354	-0.17279620654495248	1.9726020687635963	-0.45198146326077415	-0.1881264294908695	1.895711102752668	-0.38982591594734417	-0.20141703718434514	1.8278187263598298	-0.3270301193884577	-1.7131869350157967	1.887700787395405	1.114669736414607	-0.1194307682932699	1.8998319989233625	-0.646003909595314	-0.10724697888644825	1.8303687461942557	-0.6888430878508038
74	2.466666666666667	-0.16659733778195635	1.8273171599346711	-0.5083076999301391	-0.17924145978365866	1.8258976356779777	-0.44932204491238004	-0.1632625452322538	1.7025545420916086	-0.43724218929160075													-0.15191494649532636	1.8272984921431785	-0.5638496293813358	-0.14183289276961658	1.7050866084335854	-0.5422687579946315	-0.14027246899637133	1.5798663928576477	-0.5196041469756159	-0.1806631395676785	1.5492346030986455	-0.5392392528093324	-0.16900079390427022	1.5504198530123716	-0.5506521292484648	-0.13051036670671523	1.562946199681266	-0.5149880147551537	-0.15631825907169694	1.9775437238047848	-0.5355134615937643	-0.18381410853331998	2.039768379168204	-0.551204853637847	-0.17275172487000032	1.975060871821421	-0.45245463406596215	-0.18897558600069272	1.9034489597991577	-0.38544497347248174	-0.20662502846492078	1.835041926009512	-0.31239527971828385	-1.7226836076864331	1.8877643936093038	1.1315763175874158	-0.11671774542943057	1.9092795703702383	-0.6582528497140698	-0.10369905254846006	1.8454208731158068	-0.7145380883656544
75	2.5	-0.16660245485498568	1.8272935546916687	-0.5084021889342244	-0.17751961264886074	1.8247329517471815	-0.4513276480037655	-0.16416055560755344	1.702025927484445	-0.4316730839056813													-0.15289006877515698	1.8288299281446814	-0.5671756559693002	-0.14274830238600153	1.7054102960727837	-0.5455943501082308	-0.13927350330709437	1.5796124073655409	-0.5163093164500003	-0.1805939958602839	1.54925377916461	-0.5392594613036584	-0.1688719458897887	1.5502880998934663	-0.550722987301175	-0.13038182868252904	1.562428601003315	-0.5148672463905852	-0.15633267633998565	1.977693374303191	-0.5355124619661205	-0.18379952979738598	2.0397130847893	-0.551252406490234	-0.1746502596909367	1.9750834404802269	-0.4502915615697616	-0.19012025692520687	1.9058253533630967	-0.3806403750279763	-0.2083093177611268	1.8420891708360858	-0.302061660727725	-1.7246896177674782	1.889838677710648	1.1342393233670913	-0.11699114944561342	1.9137944924949264	-0.6711388264502299	-0.09775154516882253	1.852294901736919	-0.7258711094748377
76	2.533333333333333	-0.1666727159074252	1.8286973125586337	-0.5085573632124187	-0.17742900562913919	1.8275013262981488	-0.45178797077147137	-0.16397956075302708	1.7031664228339087	-0.43209158840003886													-0.15212808518003812	1.8300531890214322	-0.564162065424308	-0.14073656704848325	1.7065194496640081	-0.5392890998822004	-0.1389649141009755	1.5807784414802515	-0.5169322934797591	-0.17920462266836729	1.5494593457414003	-0.5369140443125863	-0.16853964251379402	1.5514120332106838	-0.5513417242391039	-0.1303133395729733	1.5624633922955122	-0.5149619958452473	-0.15634521392829773	1.9776623817808716	-0.5355167559887561	-0.18377597953870997	2.039778963213622	-0.551254738523942	-0.1747395026210102	1.9764181297521066	-0.45071325576068705	-0.191098942941105	1.9079287315207367	-0.38422213641700326	-0.21011238683450367	1.8463532780458687	-0.30079507125379534	-1.7246752472691036	1.8898468233162893	1.134220852504871	-0.1168177074695962	1.9148569196596543	-0.6712488222808574	-0.09628564194484004	1.8565659065959002	-0.7319593394039315
77	2.566666666666667	-0.16654783913129653	1.8270922176296633	-0.5084094961475426	-0.17745754797550142	1.8246934879482308	-0.4513894328895338	-0.1622004289903102	1.7019458163860897	-0.4338796565778092													-0.15199041486044776	1.8284393758387805	-0.5640692660240663	-0.1406202877877473	1.7035043630531945	-0.5390120217129989	-0.13925196621870142	1.5794070601529706	-0.516231278053905	-0.18087698390924414	1.550520513335145	-0.5388266816942491	-0.17122055986543927	1.5516041250681942	-0.5481521077088429	-0.13054755589356237	1.5631232235509813	-0.5148535149755985	-0.1563521952453923	1.9777081951786133	-0.5354110485890946	-0.18378451473671573	2.039826053180158	-0.5512391762264618	-0.17668850715335244	1.9738545132040788	-0.4479710921709294	-0.18994205095402272	1.905599706164868	-0.3803917967959422	-0.2098456114117104	1.840729060808749	-0.3084877428531467	-1.7344163925181388	1.8898673489013484	1.1515726700317717	-0.1168658576529333	1.914905536964209	-0.6711813597251275	-0.09967110007807169	1.8547621170374375	-0.7238947156264218
78	2.6	-0.16456379567703566	1.8272831111332348	-0.5105660419275049	-0.17728262127982533	1.8260708996162758	-0.4515473880582368	-0.16397927084233663	1.7031583989734074	-0.4320928878338812													-0.14969981102156524	1.8297828168472725	-0.5665873521889524	-0.1414599974028023	1.7053967945463437	-0.5426492971841791	-0.14023791266036342	1.5797682351148479	-0.5195615801818487	-0.1827105950802677	1.5491569757212835	-0.5369392683282899	-0.17100312974867674	1.5501841800058507	-0.5484466027987424	-0.13086962123119042	1.5621841417975852	-0.5143699237042612	-0.15642998535145158	1.9764310995842358	-0.5354037137692493	-0.183823188792236	2.039836666070773	-0.5511855331462814	-0.17471866942458783	1.9725464484313529	-0.4497744029697364	-0.18703869059501924	1.8995077036612544	-0.38699146774898635	-0.2003359635747915	1.8298657274152414	-0.3237960537596583	-1.7230037782099403	1.8879252561995055	1.132092937763221	-0.12233137797087087	1.9057518188713998	-0.6567056021562262	-0.11399909278519976	1.8376167886371972	-0.70367967175533
79	2.6333333333333333	-0.166680438969408	1.8256781467689938	-0.5081929504088724	-0.17736129294016423	1.8232268818953796	-0.4511916597507324	-0.16240985487832493	1.7005074270438205	-0.4334851101679187													-0.15009275108101222	1.827180418225389	-0.5660906190330204	-0.14095063866154262	1.7027180869551515	-0.5384913841925447	-0.13928058884138783	1.5796491605692904	-0.5162385812852487	-0.17957114592839102	1.5482363877889376	-0.5362341675089227	-0.16895887768374113	1.5503963678723287	-0.5506255604849435	-0.13086234426475923	1.564933426211263	-0.5145983589213953	-0.15644973878934798	1.976452208218486	-0.535361685622335	-0.1857473577262986	2.039739186717004	-0.5490664427797856	-0.1746746622580453	1.9725269361071731	-0.4497013696173533	-0.1824192495961225	1.8929029261976928	-0.3961889661107003	-0.1948861429949366	1.8247675191117203	-0.3474942198132828	-1.7247743378839246	1.8896641775889824	1.1344442544170856	-0.1266154212326921	1.8987557087360032	-0.6390269334824196	-0.12703664388413968	1.8310338174584133	-0.6762496158368094
80	2.6666666666666665	-0.16663993602585722	1.8244067276233396	-0.5078919333203384	-0.1773623212622263	1.8232464516456464	-0.45119241959397316	-0.16411129646594189	1.7016660791956089	-0.43175946187499986													-0.15424782399530934	1.8244893429277473	-0.5610524740948264	-0.14190137969940853	1.7027150590040054	-0.5418769588223552	-0.13904843385774646	1.5810652903849607	-0.5169293429373583	-0.17957660577230908	1.5483634314218664	-0.536253643267045	-0.16865159760393456	1.5516823184684914	-0.5512896815257372	-0.13015892653392858	1.5638917568268578	-0.5155172867562225	-0.15656755136287148	1.9753204197571628	-0.5352873156939484	-0.18575129342437402	2.0396643488234942	-0.5490892775589651	-0.1766072916187338	1.9724196439195736	-0.44739676977158677	-0.1777075234953121	1.8900998463252445	-0.40600573434929044	-0.1828104912847743	1.8193904444086677	-0.38430027693745694	-1.713167584406661	1.8877258856346057	1.114620593751384	-0.13218645468947623	1.8930037669042534	-0.6275552346938926	-0.14239202795610217	1.824386508379611	-0.6379144937325473
81	2.7	-0.16767756375875884	1.8258051355043943	-0.5113376629118983	-0.17933410162184252	1.8243673941835938	-0.4579468729677251	-0.1626469886884155	1.7023179842513259	-0.43353483123156084													-0.1560597124121039	1.8276356114401642	-0.567927101952936	-0.14277314477833739	1.7052103728739383	-0.5456699351240039	-0.1402811794940296	1.5799469961667554	-0.5196542291982612	-0.18078120607557557	1.5496553279069687	-0.5391496032916115	-0.17102001215382703	1.550320159102935	-0.548537880750808	-0.130504516155939	1.5631377574414647	-0.5150577579928907	-0.15654400310479588	1.9753730774168257	-0.5352932572426016	-0.18584151110916647	2.038647551389175	-0.5491577931965564	-0.17377135513482755	1.9724188022669564	-0.446510266520385	-0.18088728183335998	1.8910374287793938	-0.41618738327004345	-0.18964471442285802	1.8243496376756154	-0.395933544806961	-0.13517536782306777	1.9793766141230866	-0.6177764384941793	-0.13060924876804395	1.8940290134634814	-0.6292595460670446	-0.1373239836623034	1.8250520916520472	-0.6405951451924631
